<?xml version="1.0" encoding="UTF-8" standalone="no"?>
<svg
   width="167.87492"
   height="123.59959"
   version="1.1"
   id="svg6"
   sodipodi:docname="icon.svg"
   inkscape:version="1.4 (e7c3feb1, 2024-10-09)"
   xmlns:inkscape="http://www.inkscape.org/namespaces/inkscape"
   xmlns:sodipodi="http://sodipodi.sourceforge.net/DTD/sodipodi-0.dtd"
   xmlns="http://www.w3.org/2000/svg"
   xmlns:svg="http://www.w3.org/2000/svg">
  <defs
     id="defs6">
    <rect
       x="-18.736078"
       y="23.92453"
       width="35.742672"
       height="44.390091"
       id="rect7" />
  </defs>
  <sodipodi:namedview
     id="namedview6"
     pagecolor="#ffffff"
     bordercolor="#000000"
     borderopacity="0.25"
     inkscape:showpageshadow="2"
     inkscape:pageopacity="0.0"
     inkscape:pagecheckerboard="0"
     inkscape:deskcolor="#d1d1d1"
     inkscape:zoom="2.453125"
     inkscape:cx="62.77707"
     inkscape:cy="78.267516"
     inkscape:window-width="1440"
     inkscape:window-height="847"
     inkscape:window-x="0"
     inkscape:window-y="25"
     inkscape:window-maximized="0"
     inkscape:current-layer="svg6" />
  <text
     xml:space="preserve"
     id="text7"
     style="font-family:Consolas;-inkscape-font-specification:Consolas;text-align:start;writing-mode:lr-tb;direction:ltr;white-space:pre;shape-inside:url(#rect7);display:inline;fill:#336b94;fill-opacity:1;stroke:#619cc8;stroke-width:2;stroke-dasharray:none;stroke-opacity:1"
     transform="translate(19.372401,-5.3972758)" />
  <g
     id="g1"
     transform="translate(19.372401,-5.3972758)">
    <rect
       style="fill:#478cbf;fill-opacity:1;stroke:#36709b;stroke-width:2;stroke-dasharray:none;stroke-opacity:1"
       id="rect6"
       width="96.21743"
       height="72.370293"
       x="16.450048"
       y="41.690216"
       rx="14.001981" />
    <path
       id="rect6-0-3-0"
       style="fill:#478cbf;stroke:#36709b;stroke-width:2;stroke-dasharray:none"
       d="m -12.608708,70.760911 c -4.765987,10.999857 -10.325685,56.596199 0.398672,56.431719 l 24.931878,-0.0941 0.288247,-56.178766 C -0.9150844,70.858117 -0.26592744,70.719627 -12.608708,70.760911 Z"
       sodipodi:nodetypes="csccc" />
    <path
       id="rect6-0-3-9"
       style="fill:#2b251c;stroke:#b6b6a5;stroke-width:1.33308;stroke-linejoin:round"
       d="m 28.915753,115.51841 71.244547,-0.57649 c 6.6593,-0.0539 -9.907203,7.49595 -6.427043,13.17378 0,0 -61.272929,0.75855 -60.408187,-0.5765 3.62042,-5.58943 -11.068612,-11.9669 -4.409317,-12.02079 z"
       sodipodi:nodetypes="sssss" />
    <path
       id="rect6-0-3-9-8"
       style="fill:#2b251c;stroke:#b6b6a5;stroke-width:0.908884;stroke-linejoin:round"
       d="M 14.478591,68.52749 14.447114,52.810298 C 14.440556,49.535641 -9.2690099,52.4958 -9.5373612,67.788512 -9.5529122,68.674726 14.478591,68.52749 14.478591,68.52749 Z"
       sodipodi:nodetypes="cssc" />
    <path
       id="rect6-0-3-0-6"
       style="fill:#478cbf;stroke:#36709b;stroke-width:2;stroke-dasharray:none"
       d="m 141.73883,70.635224 c 4.76599,10.99985 10.32569,56.596196 -0.39867,56.431716 l -24.93188,-0.0941 -0.28825,-56.178766 c 13.92518,-0.0617 13.27602,-0.20014 25.6188,-0.15885 z"
       sodipodi:nodetypes="csccc" />
    <path
       id="rect6-0-3-9-8-1"
       style="fill:#2b251c;stroke:#b6b6a5;stroke-width:0.908884;stroke-linejoin:round"
       d="m 114.65153,68.401804 0.0315,-15.717195 c 0.007,-3.274657 23.71613,-0.314498 23.98448,14.978215 0.0155,0.88621 -24.01596,0.73898 -24.01596,0.73898 z"
       sodipodi:nodetypes="cssc" />
    <g
       id="g6"
       transform="translate(-0.22022185)">
      <path
         d="m 40.380822,41.213201 v 1.954889 q 24.298568,20.970629 48.597136,0 v -1.954889 z"
         id="path1"
         style="fill:#ffffff;stroke-width:0.0594699" />
      <path
         fill="#478cbf"
         d="m 40.380822,41.213201 9.074649,0.829346 q 0.71642,0.05924 0.895525,0.829347 l 0.238806,3.969018 7.880617,0.592391 0.477613,-3.613584 q 0.119403,-0.651629 0.895525,-0.888586 h 9.671666 q 0.776121,0.236957 0.895524,0.888586 l 0.477613,3.613584 7.880617,-0.592391 0.238807,-3.969018 q 0.179105,-0.770107 0.895524,-0.829347 l 9.07465,-0.829346 V 26.64039 q 1.791049,-2.310324 3.343292,-4.798364 -2.089558,-3.495105 -4.955236,-6.39782 -2.567171,1.184782 -4.895535,2.784237 -2.388066,-2.191846 -5.253745,-3.791301 0.417912,-3.021192 0.477614,-6.0423852 -3.522397,-1.658693 -7.343302,-2.48804 -1.552243,2.547279 -2.746276,5.2722772 -2.92538,-0.414674 -5.850761,0 -1.194033,-2.7249982 -2.746275,-5.2722772 -3.820905,0.829347 -7.343302,2.48804 0.0597,3.0211932 0.477613,6.0423852 -2.865679,1.599455 -5.253744,3.791301 -2.328364,-1.599455 -4.895535,-2.784237 -2.865679,2.902715 -4.955236,6.39782 1.552242,2.48804 3.343292,4.798364 z m 0,1.954889 v 2.310323 c 0,16.349983 48.537434,16.349983 48.597136,0 V 43.16809 l -8.00002,0.710869 -0.298508,4.087495 q -0.119404,0.592391 -0.835823,0.770108 l -9.671666,0.65163 q -0.71642,0 -0.955226,-0.65163 l -0.597017,-3.850539 h -7.880617 l -0.597016,3.850539 q -0.238807,0.65163 -0.955226,0.65163 l -9.671666,-0.65163 q -0.71642,-0.177717 -0.835823,-0.770108 l -0.298508,-4.087495 z"
         id="path2"
         style="stroke-width:0.0594699" />
      <path
         fill="#478cbf"
         d="m 89.077553,26.795266 c 1.194033,-1.540216 2.308462,-3.13967 3.343292,-4.798364 -1.39304,-2.33007 -3.044784,-4.462677 -4.955236,-6.397819 -1.711447,0.789854 -3.343292,1.717932 -4.895535,2.784236 -1.592043,-1.46123 -3.343292,-2.724997 -5.253744,-3.791301 0.278607,-2.014128 0.437812,-4.028256 0.477613,-6.0423842 -2.348265,-1.105796 -4.796032,-1.935143 -7.343302,-2.488041 -1.034829,1.698186 -1.950253,3.455612 -2.746275,5.2722772 -1.950254,-0.276449 -3.900508,-0.276449 -5.850761,0 -0.796022,-1.8166652 -1.711447,-3.5740912 -2.746276,-5.2722772 -2.54727,0.552898 -4.995037,1.382245 -7.343302,2.488041 0.0398,2.0141282 0.199006,4.0282562 0.477613,6.0423842 -1.910452,1.066304 -3.661701,2.330071 -5.253744,3.791301 -1.552243,-1.066304 -3.184088,-1.994382 -4.895535,-2.784236 -1.910452,1.935142 -3.562197,4.067749 -4.955236,6.397819 1.034829,1.658694 2.149259,3.258148 3.343292,4.798364 6.382006,-4.234935 18.297621,1.966027 24.342014,1.729856 5.812363,-0.227105 20.486999,-4.549356 24.255122,-1.729856 z"
         id="path2-9"
         style="fill:#d4aa00;stroke:#f6d33b;stroke-width:1.17762;stroke-dasharray:none;stroke-opacity:1"
         sodipodi:nodetypes="ccccccccccccccccsc" />
      <path
         d="m 62.948042,36.888749 c 0,2.014128 3.462695,2.014128 3.462695,0 v -5.09456 c 0,-2.014128 -3.462695,-2.014128 -3.462695,0 z"
         id="path3"
         style="fill:#ffffff;stroke-width:0.0594699" />
      <ellipse
         cx="77.395836"
         cy="32.505054"
         id="circle3"
         style="fill:#9500b4;fill-opacity:1;stroke:#ffffff;stroke-width:0.588811;stroke-dasharray:none;stroke-opacity:1"
         rx="5.373148"
         ry="5.3315163" />
      <ellipse
         cx="64.814919"
         cy="18.07806"
         id="circle3-2"
         style="fill:#008c33;fill-opacity:1;stroke:#ffffff;stroke-width:0.659604;stroke-dasharray:none;stroke-opacity:1"
         rx="6.0191522"
         ry="5.9725156" />
      <ellipse
         cx="51.96294"
         cy="32.505054"
         id="circle4"
         style="fill:#bb3000;fill-opacity:1;stroke:#ffffff;stroke-width:0.588811;stroke-dasharray:none;stroke-opacity:1"
         rx="5.373148"
         ry="5.3315163" />
      <ellipse
         cx="52.681515"
         cy="20.666744"
         id="circle5"
         style="fill:#aa8800;fill-opacity:1;stroke-width:0.0594699"
         rx="3.5820985"
         ry="3.5543439" />
      <ellipse
         cx="77.159187"
         cy="20.666744"
         id="circle6"
         style="fill:#aa8800;fill-opacity:1;stroke-width:0.0594699"
         rx="3.5820985"
         ry="3.5543439" />
    </g>
    <path
       id="text8"
       style="font-size:58.6667px;line-height:0.6;font-family:Monaco;-inkscape-font-specification:'Monaco, Normal';letter-spacing:0px;fill:#c5201e;fill-opacity:1;stroke:#3b0b0b;stroke-width:0.883499;stroke-dasharray:none;stroke-opacity:1"
       d="m 79.843346,56.90071 c -3.611462,0.133158 -7.189919,1.756824 -9.539617,4.634658 -3.240656,3.884655 -4.567781,9.064258 -4.976271,14.082556 -0.385906,5.608705 -0.07893,11.427084 2.021478,16.677658 1.46529,3.697835 4.099696,7.091445 7.774023,8.575118 3.247946,1.32797 6.952017,1.40026 10.280102,0.34299 3.507591,-1.09703 6.288394,-3.935341 7.926318,-7.2659 2.629733,-5.256272 3.115634,-11.338652 2.851858,-17.162448 -0.283445,-5.300441 -1.521388,-10.798436 -4.827865,-14.991953 -2.296771,-2.940459 -5.844299,-4.688255 -9.475185,-4.871423 -0.676906,-0.05309 -1.356856,-0.04791 -2.034841,-0.02126 z m -42.922593,2.935256 c 0,6.858295 0,13.716589 0,20.574885 4.443597,0.07108 9.023907,-0.340965 13.316418,1.111254 2.312817,0.804096 4.522579,2.868 4.615888,5.535523 0.118723,2.788755 -1.705388,5.496242 -4.259945,6.38228 -2.625172,1.083643 -5.537349,0.480974 -8.159657,-0.293178 -2.221609,-0.647402 -4.241721,-1.819896 -6.299714,-2.869766 0,3.126025 0,6.252049 0,9.378073 4.585088,1.377293 9.370362,2.797023 14.187543,2.082303 4.650638,-0.69337 9.212996,-3.321123 11.555588,-7.647541 2.113293,-3.849424 2.356397,-8.751201 0.657397,-12.809873 -1.789528,-4.182061 -5.775094,-6.931994 -9.941743,-8.088968 -2.427552,-0.710467 -4.954711,-0.990255 -7.470924,-1.052194 0,-1.9978 0,-3.995601 0,-5.993401 5.785544,0 11.571087,0 17.356631,0 0,-2.702355 0,-5.404711 0,-8.107066 -8.519161,0 -17.038321,0 -25.557482,0 0,0.599222 0,1.198446 0,1.797669 z m 44.094628,4.555616 c 1.438242,0.08179 2.797273,0.891436 3.573773,2.150532 -3.552854,5.519406 -7.105708,11.038812 -10.658562,16.558218 -0.308549,-4.890978 -0.257735,-10.015169 1.683665,-14.578676 0.789409,-1.950461 2.289226,-3.924082 4.476435,-4.101645 0.306477,-0.04083 0.616386,-0.0442 0.924689,-0.02843 z m 6.514884,11.77087 c 0.416858,4.965163 -0.132436,10.096947 -2.039439,14.700933 -0.739646,1.800695 -2.281396,3.385297 -4.247923,3.525939 -1.622756,0.278044 -3.307554,-0.445052 -4.281394,-1.812477 0.160985,-0.536137 0.666067,-1.089192 0.959442,-1.631838 3.191233,-5.024659 6.382464,-10.049317 9.573696,-15.073976 0.01187,0.09714 0.02374,0.19428 0.03562,0.291419 z" />
    <text
       xml:space="preserve"
       style="font-size:21.3333px;line-height:0.6;font-family:Futura;-inkscape-font-specification:'Futura, Normal';text-align:start;letter-spacing:0px;writing-mode:tb-rl;direction:ltr;text-anchor:start;fill:#2f79a9;fill-opacity:1;stroke:#83c6c6;stroke-width:0.2;stroke-linejoin:round;stroke-dasharray:none;stroke-opacity:1"
       x="-2.0382166"
       y="77.859879"
       id="text1"><tspan
         sodipodi:role="line"
         id="tspan1"
         x="-2.0382166"
         y="77.859879">傲慢</tspan></text>
    <text
       xml:space="preserve"
       style="font-size:21.3333px;line-height:0.6;font-family:Futura;-inkscape-font-specification:'Futura, Normal';text-align:start;letter-spacing:0px;writing-mode:tb-rl;direction:ltr;text-anchor:start;fill:#2f79a9;fill-opacity:1;stroke:#83c6c6;stroke-width:0.2;stroke-linejoin:round;stroke-dasharray:none;stroke-opacity:1"
       x="131.37331"
       y="77.859879"
       id="text1-4"><tspan
         sodipodi:role="line"
         id="tspan1-5"
         x="131.37331"
         y="77.859879">充満</tspan></text>
  </g>
</svg>
