<?xml version="1.0" encoding="UTF-8" standalone="no"?>
<svg
   width="640"
   height="400"
   version="1.1"
   id="svg6"
   sodipodi:docname="icon_with_logo.svg"
   inkscape:version="1.4 (e7c3feb1, 2024-10-09)"
   inkscape:export-filename="icon_with_logo.png"
   inkscape:export-xdpi="96"
   inkscape:export-ydpi="96"
   xmlns:inkscape="http://www.inkscape.org/namespaces/inkscape"
   xmlns:sodipodi="http://sodipodi.sourceforge.net/DTD/sodipodi-0.dtd"
   xmlns="http://www.w3.org/2000/svg"
   xmlns:svg="http://www.w3.org/2000/svg">
  <defs
     id="defs6">
    <rect
       x="-18.736078"
       y="23.92453"
       width="35.742672"
       height="44.390091"
       id="rect7" />
  </defs>
  <sodipodi:namedview
     id="namedview6"
     pagecolor="#ffffff"
     bordercolor="#000000"
     borderopacity="0.25"
     inkscape:showpageshadow="2"
     inkscape:pageopacity="0.0"
     inkscape:pagecheckerboard="0"
     inkscape:deskcolor="#d1d1d1"
     inkscape:zoom="0.86731066"
     inkscape:cx="280.75292"
     inkscape:cy="242.12777"
     inkscape:window-width="1440"
     inkscape:window-height="847"
     inkscape:window-x="0"
     inkscape:window-y="25"
     inkscape:window-maximized="0"
     inkscape:current-layer="svg6" />
  <g
     id="g4"
     transform="matrix(2.1060317,0,0,2.1060317,186.53405,-16.534846)"
     style="fill:#ffcc00">
    <path
       id="text1"
       style="font-size:58.6667px;line-height:0.6;font-family:Futura;-inkscape-font-specification:'Futura, Normal';letter-spacing:-4px;fill:#ffcc00;fill-opacity:1;stroke:#700f0f;stroke-linejoin:round"
       d="m 86.788404,133.01886 c -0.46145,0.69198 -1.0789,1.31804 -1.08701,2.20158 -1.86618,9.53046 -3.73236,19.06092 -5.59854,28.59139 -0.71435,-0.35148 -1.5045,-0.63993 -2.32813,-0.52344 -3.69205,0 -7.384111,0 -11.076169,0 0,-8.41407 0,-16.82813 0,-25.24219 -0.320651,-0.49417 -0.379547,-1.26866 -0.872847,-1.57795 -0.707163,-0.33519 -1.442357,-0.51558 -2.227153,-0.42205 -1.885265,0.0277 -3.794553,-0.0554 -5.66486,0.0414 -0.580401,0.36653 -1.535486,0.38318 -1.62718,1.20606 -0.519928,1.04037 -0.189579,2.23472 -0.281788,3.35255 -0.01809,8.45743 0.03628,16.91583 -0.02734,25.37266 -0.135978,2.4467 -0.44726,5.20119 -2.411942,6.91681 -2.15836,2.04928 -5.525871,2.31862 -8.249898,1.40545 -2.28816,-0.80731 -3.965356,-2.9434 -4.322343,-5.33055 -0.637749,-3.27517 -0.293982,-6.63213 -0.383004,-9.94523 0,-7.00638 0,-14.01276 0,-21.01914 -0.320651,-0.49417 -0.379547,-1.26866 -0.872847,-1.57795 -0.707163,-0.33519 -1.442357,-0.51558 -2.227153,-0.42205 -1.885265,0.0277 -3.794553,-0.0554 -5.664861,0.0414 -0.5804,0.36653 -1.535485,0.38318 -1.627179,1.20606 -0.519929,1.04037 -0.189579,2.23472 -0.281788,3.35255 0.01817,8.98612 -0.03645,17.97344 0.02749,26.9588 0.146343,4.63993 2.057492,9.24228 5.486197,12.41434 3.332334,3.26004 7.961177,5.06761 12.611885,5.05366 4.697418,0.11151 9.429639,-1.59131 12.857491,-4.83093 2.211356,-2.00566 3.904928,-4.58373 4.815763,-7.43024 1.149033,0.20651 2.366417,0.0323 3.542187,0.0898 3.008721,0 6.017451,0 9.026171,0 -0.58659,2.99609 -1.17318,5.99219 -1.75976,8.98828 0.22381,0.53924 0.11994,1.33289 0.55986,1.70434 0.67381,0.33346 1.3048,0.84848 2.10303,0.68043 2.09535,-0.0281 4.21495,0.0558 6.29533,-0.0414 0.59102,-0.36202 1.50289,-0.39703 1.67542,-1.18555 0.48192,-1.15288 0.49333,-2.45691 0.78011,-3.67248 1.00921,-5.6748 2.01843,-11.34961 3.02765,-17.02441 3.35612,7.58854 6.71224,15.17708 10.068354,22.76562 0.49223,0.31388 0.86142,1.02379 1.43476,1.07655 0.64249,-0.15629 1.48321,0.0624 1.84145,-0.63163 0.7847,-0.89192 1.05676,-2.11653 1.61817,-3.15336 3.03326,-6.65643 6.06651,-13.31286 9.09976,-19.96929 1.07357,6.71745 2.14714,13.43489 3.22071,20.15234 0.47622,0.54308 0.65342,1.49406 1.49073,1.54458 1.12533,0.30176 2.32677,0.0629 3.48387,0.13902 3.78038,-0.003 7.54646,0.001 11.33399,0 0.72571,-0.38384 1.71046,-0.52117 1.94344,-1.4387 1.4225,-3.10117 2.845,-6.20233 4.2675,-9.30349 5.44531,0 10.89062,0 16.33593,0 1.37305,3.17838 2.7461,6.35677 4.11914,9.53515 0.63037,0.49457 1.12549,1.34147 2.03594,1.20704 2.3955,-0.028 4.8152,0.0557 7.19572,-0.0414 0.56433,-0.52907 1.12067,0.0663 1.73827,0.0414 2.15193,-0.0277 4.32787,0.0554 6.46486,-0.0414 0.5804,-0.36653 1.53548,-0.38318 1.62718,-1.20606 0.51992,-1.04038 0.18958,-2.23473 0.28178,-3.35255 0,-7.79675 0,-15.59349 0,-23.39024 9.60417,10.02214 19.20834,20.04427 28.8125,30.06641 0.56954,0.12759 1.15825,0.66985 1.71514,0.52409 0.54616,-0.36728 1.42921,-0.44117 1.49209,-1.22934 0.45732,-1.06177 0.14456,-2.25389 0.23613,-3.37757 0,-14.74062 0,-29.48124 0,-44.22187 -0.32065,-0.49417 -0.37954,-1.26866 -0.87284,-1.57795 -0.70717,-0.33519 -1.44236,-0.51558 -2.22716,-0.42205 -1.88526,0.0277 -3.79455,-0.0554 -5.66486,0.0414 -0.5804,0.36653 -1.53548,0.38318 -1.62718,1.20606 -0.51992,1.04037 -0.18958,2.23472 -0.28178,3.35255 0,7.71667 0,15.43333 0,23.15 -9.60352,-10.04687 -19.20704,-20.09375 -28.81055,-30.14063 -0.56897,-0.12749 -1.15671,-0.67 -1.71333,-0.52437 -0.54689,0.3666 -1.43069,0.43904 -1.49441,1.22749 -0.45935,1.06204 -0.14593,2.25525 -0.23757,3.3797 0,12.86888 0,25.73776 0,38.60664 -6.27214,-13.96615 -12.54427,-27.93229 -18.81641,-41.89844 -0.49389,-0.31068 -0.86698,-1.01853 -1.44046,-1.06755 -0.64183,0.15966 -1.48146,-0.0521 -1.83956,0.64029 -0.77211,0.88986 -1.05859,2.09762 -1.62288,3.12353 -6.0506,12.99642 -12.10119,25.99285 -18.15179,38.98928 -2.44857,-13.91862 -4.89713,-27.83724 -7.3457,-41.75586 -0.40293,-0.42331 -0.59196,-1.20117 -1.13616,-1.39034 -0.61307,0.032 -1.38745,-0.44875 -1.81799,0.16351 -0.58223,0.42765 -1.04079,0.94682 -1.25094,1.64985 -4.48632,9.80626 -8.97265,19.61252 -13.45897,29.41877 -4.461584,-10.10156 -8.923174,-20.20312 -13.384764,-30.30468 -0.49222,-0.31388 -0.86141,-1.02379 -1.43476,-1.07655 -0.48138,0.0607 -0.96276,0.12134 -1.44414,0.18202 z m -149.056646,2.19336 c -5.589046,0.1917 -11.098047,2.33114 -15.261761,6.08138 -4.397594,3.78838 -7.51297,9.1114 -8.317035,14.88886 -0.91571,6.06884 0.218496,12.53057 3.672442,17.66364 3.713553,5.58975 9.623532,9.87387 16.328067,10.91323 6.111178,1.01064 12.734343,-0.14031 17.744303,-3.91626 4.217971,-3.15163 7.503775,-7.73913 8.490234,-12.96874 1.655521,5.61777 5.662752,10.33367 10.590485,13.40201 4.922116,3.17641 10.990065,4.35912 16.770338,3.56932 5.7440627,-0.6767 11.1229447,-3.55043 15.0622857,-7.7573 3.870388,-3.98305 6.280059,-9.34285 6.613332,-14.89253 0.472072,-5.87396 -1.107902,-11.94584 -4.705411,-16.65208 -3.699996,-4.93519 -9.106911,-8.71719 -15.2262707,-9.85802 -6.696234,-1.27757 -13.97323,0.0121 -19.52446,4.0686 -5.216891,3.72942 -9.247343,9.35828 -10.31183,15.75645 -0.118223,0.61213 -0.190933,1.23096 -0.262609,1.84987 -0.964389,-0.26332 -2.015326,-0.0466 -3.014453,-0.11718 -5.192448,0 -10.384896,0 -15.577344,0 -0.494174,0.32065 -1.268661,0.37954 -1.577946,0.87284 -0.335189,0.70717 -0.515582,1.44236 -0.422054,2.22716 0.02777,1.75179 -0.05542,3.52763 0.04139,5.26447 0.366529,0.5804 0.383177,1.53548 1.206058,1.62718 1.040377,0.51992 2.234724,0.18957 3.352553,0.28178 1.986198,0 3.972396,0 5.958594,0 -1.206587,3.31883 -4.187772,5.84181 -7.517787,6.88123 -3.96082,1.18636 -8.344706,0.0154 -11.525182,-2.52966 -3.053186,-2.25726 -5.245049,-5.72378 -5.631649,-9.53417 -0.537011,-4.22179 0.500065,-8.77252 3.439674,-11.95132 2.472015,-2.88341 6.119229,-4.71444 9.925219,-4.86062 3.609118,-0.29928 7.279705,0.96862 9.950466,3.41083 1.077373,0.90627 1.947228,2.04213 2.862118,3.08478 0.616132,0.19182 1.197332,0.9583 1.850475,0.54125 0.768487,-0.17792 1.369988,-0.62211 1.882466,-1.20825 1.297044,-1.28044 2.687773,-2.49763 3.926359,-3.81753 0.167654,-0.66661 0.838958,-1.33572 0.349582,-1.99906 -0.366208,-1.10985 -1.387649,-1.81501 -2.132473,-2.67257 -3.10534,-3.15288 -6.902715,-5.74823 -11.238583,-6.83179 -2.525608,-0.68552 -5.158398,-0.92604 -7.769593,-0.8178 z m 79.414063,1.51953 c -0.306153,0.74575 -0.61823,1.49043 -0.492188,2.31445 -0.01741,9.71623 0.03507,19.43332 -0.02668,29.14901 -0.130081,1.93884 -0.138605,4.0179 -1.127622,5.74943 -0.917623,1.21249 -2.745203,0.99739 -3.991795,0.47738 -0.886528,-0.30596 -1.5668653,-1.08489 -2.5577823,-1.03723 -0.669305,-0.29534 -1.133684,0.16346 -1.61004,0.57819 -0.73644,0.65691 -1.041915,1.6849 -1.597517,2.49752 -0.647129,1.18591 -1.402941,2.33738 -1.982654,3.54464 0.02944,0.68575 -0.429812,1.5219 0.237152,2.01145 0.727316,1.03671 2.03747,1.38557 3.137402,1.90461 4.4966893,1.73119 9.9482963,1.66335 14.0110183,-1.13045 2.908611,-1.97718 4.88079,-5.14892 5.581769,-8.57664 0.9307,-4.45407 0.542328,-9.03475 0.629869,-13.55072 0,-7.53907 0,-15.07813 0,-22.61719 -0.32065,-0.49417 -0.379547,-1.26866 -0.872847,-1.57795 -0.707163,-0.33519 -1.442356,-0.51558 -2.227153,-0.42205 -1.894942,0.0282 -3.814203,-0.0559 -5.694157,0.0414 -0.47226,0.21472 -0.94452,0.42944 -1.41678,0.64416 z m -31.970703,8.77343 c 3.726981,0.0973 7.3432887,1.79725 9.8117557,4.58841 2.817999,2.94252 4.04508101,7.13352 3.743503,11.15045 -0.216288,5.71204 -4.247265,11.02644 -9.6558677,12.83587 -4.339868,1.43453 -9.406658,0.84973 -13.071267,-1.97707 -3.011404,-2.18596 -5.246981,-5.5003 -5.777743,-9.21813 -0.695548,-4.17913 0.134581,-8.74464 2.91554,-12.03919 2.377252,-2.95082 5.906018,-4.99707 9.713766,-5.28565 0.771669,-0.0676 1.546276,-0.0818 2.320313,-0.0547 z m 167.507812,17.75391 c -2.42253,0 -4.84506,0 -7.26758,0 1.23958,-2.71159 2.47916,-5.42318 3.71875,-8.13476 1.18294,2.71158 2.36588,5.42317 3.54883,8.13476 z" />
    <path
       style="fill:#ffcc00;fill-opacity:1;stroke:#700f0f;stroke-width:0.705898;stroke-linejoin:round;stroke-dasharray:none;stroke-opacity:1"
       d="M -77.128541,197.3784 C 17.674558,183.32918 113.75994,184.34743 210.80044,196.58928"
       id="path4"
       sodipodi:nodetypes="cc" />
  </g>
  <text
     xml:space="preserve"
     id="text7"
     style="font-family:Consolas;-inkscape-font-specification:Consolas;text-align:start;writing-mode:lr-tb;direction:ltr;white-space:pre;shape-inside:url(#rect7);display:inline;fill:#336b94;fill-opacity:1;stroke:#619cc8;stroke-width:2;stroke-dasharray:none;stroke-opacity:1"
     transform="translate(76.451493,9.7961823)" />
  <g
     id="g1">
    <rect
       style="fill:#478cbf;fill-opacity:1;stroke:#36709b;stroke-width:4.21206;stroke-dasharray:none;stroke-opacity:1"
       id="rect6-6"
       width="202.63696"
       height="152.41412"
       x="214.6246"
       y="76.434082"
       rx="29.488615" />
    <path
       id="rect6-0-3-0-62"
       style="fill:#478cbf;stroke:#36709b;stroke-width:4.21206;stroke-dasharray:none"
       d="m 153.42594,137.65789 c -10.03732,23.16605 -21.74622,119.19339 0.83962,118.84699 l 52.50732,-0.19818 0.60706,-118.31426 c -29.32686,-0.12983 -27.95971,-0.4215 -53.954,-0.33455 z"
       sodipodi:nodetypes="csccc" />
    <path
       id="rect6-0-3-9-5"
       style="fill:#5f5f6e;fill-opacity:1;stroke:#b6b6a5;stroke-width:2.80751;stroke-linejoin:round"
       d="m 240.87777,231.9186 150.04328,-1.21411 c 14.02469,-0.11351 -20.86489,15.78671 -13.53556,27.7444 0,0 -129.04273,1.59753 -127.22156,-1.21413 7.62472,-11.77151 -23.31084,-25.20267 -9.28616,-25.31616 z"
       sodipodi:nodetypes="sssss" />
    <path
       id="rect6-0-3-9-8"
       style="fill:#5f5f6e;fill-opacity:1;stroke:#b6b6a5;stroke-width:1.91414;stroke-linejoin:round"
       d="m 210.47265,132.95423 -0.0663,-33.100902 c -0.0138,-6.896532 -49.94691,-0.662343 -50.51207,31.544592 -0.0328,1.8664 50.57836,1.55631 50.57836,1.55631 z"
       sodipodi:nodetypes="cssc" />
    <path
       id="rect6-0-3-0-6"
       style="fill:#478cbf;stroke:#36709b;stroke-width:4.21206;stroke-dasharray:none"
       d="m 478.48675,137.39319 c 10.03733,23.16603 21.74623,119.19338 -0.83961,118.84698 l -52.50733,-0.19818 -0.60707,-118.31426 c 29.32687,-0.12994 27.95972,-0.4215 53.95401,-0.33454 z"
       sodipodi:nodetypes="csccc" />
    <path
       id="rect6-0-3-9-8-1"
       style="fill:#5f5f6e;fill-opacity:1;stroke:#b6b6a5;stroke-width:1.91414;stroke-linejoin:round"
       d="m 421.44004,132.68953 0.0663,-33.100907 c 0.0147,-6.896532 49.94692,-0.662343 50.51207,31.544597 0.0327,1.86638 -50.57837,1.55631 -50.57837,1.55631 z"
       sodipodi:nodetypes="cssc" />
    <g
       id="g6"
       transform="matrix(2.1060317,0,0,2.1060317,179.51649,-11.366834)">
      <path
         d="m 40.380822,41.213201 v 1.954889 q 24.298568,20.970629 48.597136,0 v -1.954889 z"
         id="path1-1"
         style="fill:#ffffff;stroke-width:0.0594699" />
      <path
         fill="#478cbf"
         d="m 40.380822,41.213201 9.074649,0.829346 q 0.71642,0.05924 0.895525,0.829347 l 0.238806,3.969018 7.880617,0.592391 0.477613,-3.613584 q 0.119403,-0.651629 0.895525,-0.888586 h 9.671666 q 0.776121,0.236957 0.895524,0.888586 l 0.477613,3.613584 7.880617,-0.592391 0.238807,-3.969018 q 0.179105,-0.770107 0.895524,-0.829347 l 9.07465,-0.829346 V 26.64039 q 1.791049,-2.310324 3.343292,-4.798364 -2.089558,-3.495105 -4.955236,-6.39782 -2.567171,1.184782 -4.895535,2.784237 -2.388066,-2.191846 -5.253745,-3.791301 0.417912,-3.021192 0.477614,-6.0423852 -3.522397,-1.658693 -7.343302,-2.48804 -1.552243,2.547279 -2.746276,5.2722772 -2.92538,-0.414674 -5.850761,0 -1.194033,-2.7249982 -2.746275,-5.2722772 -3.820905,0.829347 -7.343302,2.48804 0.0597,3.0211932 0.477613,6.0423852 -2.865679,1.599455 -5.253744,3.791301 -2.328364,-1.599455 -4.895535,-2.784237 -2.865679,2.902715 -4.955236,6.39782 1.552242,2.48804 3.343292,4.798364 z m 0,1.954889 v 2.310323 c 0,16.349983 48.537434,16.349983 48.597136,0 V 43.16809 l -8.00002,0.710869 -0.298508,4.087495 q -0.119404,0.592391 -0.835823,0.770108 l -9.671666,0.65163 q -0.71642,0 -0.955226,-0.65163 l -0.597017,-3.850539 h -7.880617 l -0.597016,3.850539 q -0.238807,0.65163 -0.955226,0.65163 l -9.671666,-0.65163 q -0.71642,-0.177717 -0.835823,-0.770108 l -0.298508,-4.087495 z"
         id="path2-7"
         style="stroke-width:0.0594699" />
      <path
         fill="#478cbf"
         d="m 89.077553,26.795266 c 1.194033,-1.540216 2.308462,-3.13967 3.343292,-4.798364 -1.39304,-2.33007 -3.044784,-4.462677 -4.955236,-6.397819 -1.711447,0.789854 -3.343292,1.717932 -4.895535,2.784236 -1.592043,-1.46123 -3.343292,-2.724997 -5.253744,-3.791301 0.278607,-2.014128 0.437812,-4.028256 0.477613,-6.0423842 -2.348265,-1.105796 -4.796032,-1.935143 -7.343302,-2.488041 -1.034829,1.698186 -1.950253,3.455612 -2.746275,5.2722772 -1.950254,-0.276449 -3.900508,-0.276449 -5.850761,0 -0.796022,-1.8166652 -1.711447,-3.5740912 -2.746276,-5.2722772 -2.54727,0.552898 -4.995037,1.382245 -7.343302,2.488041 0.0398,2.0141282 0.199006,4.0282562 0.477613,6.0423842 -1.910452,1.066304 -3.661701,2.330071 -5.253744,3.791301 -1.552243,-1.066304 -3.184088,-1.994382 -4.895535,-2.784236 -1.910452,1.935142 -3.562197,4.067749 -4.955236,6.397819 1.034829,1.658694 2.149259,3.258148 3.343292,4.798364 6.382006,-4.234935 18.297621,1.966027 24.342014,1.729856 5.812363,-0.227105 20.486999,-4.549356 24.255122,-1.729856 z"
         id="path2-9-1"
         style="fill:#d4aa00;stroke:#f6d33b;stroke-width:1.17762;stroke-dasharray:none;stroke-opacity:1"
         sodipodi:nodetypes="ccccccccccccccccsc" />
      <path
         d="m 62.948042,36.888749 c 0,2.014128 3.462695,2.014128 3.462695,0 v -5.09456 c 0,-2.014128 -3.462695,-2.014128 -3.462695,0 z"
         id="path3-8"
         style="fill:#ffffff;stroke-width:0.0594699" />
      <ellipse
         cx="77.395836"
         cy="32.505054"
         id="circle3-4"
         style="fill:#9500b4;fill-opacity:1;stroke:#ffffff;stroke-width:0.588811;stroke-dasharray:none;stroke-opacity:1"
         rx="5.373148"
         ry="5.3315163" />
      <ellipse
         cx="64.814919"
         cy="18.07806"
         id="circle3-2-0"
         style="fill:#008c33;fill-opacity:1;stroke:#ffffff;stroke-width:0.659604;stroke-dasharray:none;stroke-opacity:1"
         rx="6.0191522"
         ry="5.9725156" />
      <ellipse
         cx="51.96294"
         cy="32.505054"
         id="circle4-7"
         style="fill:#bb3000;fill-opacity:1;stroke:#ffffff;stroke-width:0.588811;stroke-dasharray:none;stroke-opacity:1"
         rx="5.373148"
         ry="5.3315163" />
      <ellipse
         cx="52.681515"
         cy="20.666744"
         id="circle5-7"
         style="fill:#aa8800;fill-opacity:1;stroke-width:0.0594699"
         rx="3.5820985"
         ry="3.5543439" />
      <ellipse
         cx="77.159187"
         cy="20.666744"
         id="circle6-1"
         style="fill:#aa8800;fill-opacity:1;stroke-width:0.0594699"
         rx="3.5820985"
         ry="3.5543439" />
    </g>
    <path
       id="text8-2"
       style="font-size:58.6667px;line-height:0.6;font-family:Monaco;-inkscape-font-specification:'Monaco, Normal';letter-spacing:0px;fill:#c5201e;fill-opacity:1;stroke:#3b0b0b;stroke-width:1.86068;stroke-dasharray:none;stroke-opacity:1"
       d="m 348.1329,108.46787 c -7.60586,0.28043 -15.1422,3.69992 -20.09074,9.76073 -6.82492,8.18121 -9.61989,19.08962 -10.48018,29.65831 -0.81273,11.81211 -0.16623,24.0658 4.25729,35.12368 3.08595,7.78776 8.63409,14.93481 16.37234,18.05947 6.84028,2.79674 14.64117,2.94899 21.65022,0.72235 7.3871,-2.31038 13.24356,-8.28796 16.69308,-15.30222 5.5383,-11.06988 6.56162,-23.87956 6.0061,-36.14466 -0.59694,-11.1629 -3.20409,-22.74185 -10.16763,-31.57353 -4.83708,-6.1927 -12.30828,-9.87361 -19.95504,-10.25937 -1.42559,-0.11181 -2.85758,-0.1009 -4.28544,-0.0448 z m -90.39634,6.18174 c 0,14.44378 0,28.88757 0,43.33136 9.35835,0.14969 19.00463,-0.71809 28.04479,2.34033 4.87087,1.69346 9.5247,6.0401 9.72121,11.65799 0.25004,5.87321 -3.5916,11.57526 -8.97158,13.44128 -5.52869,2.28219 -11.66183,1.01295 -17.18449,-0.61744 -4.67878,-1.36345 -8.9332,-3.83276 -13.2674,-6.04382 0,6.58351 0,13.16702 0,19.75052 9.65634,2.90063 19.73428,5.89062 29.87941,4.3854 9.79439,-1.46026 19.40287,-6.99439 24.33644,-16.10596 4.45066,-8.10701 4.96264,-18.43031 1.3845,-26.978 -3.76881,-8.80756 -12.16253,-14.599 -20.93763,-17.03563 -5.1125,-1.49626 -10.43478,-2.0855 -15.734,-2.21595 0,-4.20743 0,-8.41486 0,-12.62229 12.18454,0 24.36907,0 36.55361,0 0,-5.69125 0,-11.3825 0,-17.07374 -17.94162,0 -35.88324,0 -53.82486,0 0,1.26198 0,2.52396 0,3.78595 z m 92.86468,9.59427 c 3.02898,0.17225 5.89115,1.87739 7.52648,4.52909 -7.48242,11.62404 -14.96485,23.24809 -22.44727,34.87213 -0.64981,-10.30056 -0.5428,-21.09226 3.54585,-30.70315 1.66252,-4.10774 4.82118,-8.26425 9.42752,-8.6382 0.64545,-0.086 1.29812,-0.0931 1.94742,-0.0599 z m 13.72055,24.78982 c 0.87792,10.45679 -0.27891,21.26449 -4.29512,30.96064 -1.55772,3.79232 -4.80469,7.12954 -8.94626,7.42573 -3.41758,0.58557 -6.96581,-0.93729 -9.01675,-3.81713 0.33904,-1.12912 1.40276,-2.29387 2.02061,-3.4367 6.72084,-10.58209 13.44167,-21.16418 20.16251,-31.74627 0.025,0.20458 0.05,0.40916 0.075,0.61373 z" />
    <text
       xml:space="preserve"
       style="font-size:44.9286px;line-height:0.6;font-family:Futura;-inkscape-font-specification:'Futura, Normal';text-align:start;letter-spacing:0px;writing-mode:tb-rl;direction:ltr;text-anchor:start;fill:#2f79a9;fill-opacity:1;stroke:#83c6c6;stroke-width:0.421206;stroke-linejoin:round;stroke-dasharray:none;stroke-opacity:1"
       x="175.68773"
       y="152.60854"
       id="text1-2"><tspan
         sodipodi:role="line"
         id="tspan1"
         x="175.68773"
         y="152.60854"
         style="stroke-width:0.421206">傲慢</tspan></text>
    <text
       xml:space="preserve"
       style="font-size:44.9286px;line-height:0.6;font-family:Futura;-inkscape-font-specification:'Futura, Normal';text-align:start;letter-spacing:0px;writing-mode:tb-rl;direction:ltr;text-anchor:start;fill:#2f79a9;fill-opacity:1;stroke:#83c6c6;stroke-width:0.421206;stroke-linejoin:round;stroke-dasharray:none;stroke-opacity:1"
       x="456.65662"
       y="152.60854"
       id="text1-4"><tspan
         sodipodi:role="line"
         id="tspan1-5"
         x="456.65662"
         y="152.60854"
         style="stroke-width:0.421206">充満</tspan></text>
  </g>
</svg>
